# xmcd CD database file
#
# Track frame offsets:
#	150
#	14065
#	30832
#	44860
#	56905
#	71727
#	95372
#	112392
#	130697
#	140332
#	173052
#	191815
#	208065
#	218497
#
# Disc length: 3142 seconds
#
# Revision: 0
# Processed by: cddbd v1.4PL0 Copyright (c) Steve Scherf et al.
# Submitted via: CDex 1.40Release
#
DISCID=d80c440e
DTITLE=RIK EMMETT - Raw Quartet
DYEAR=1999
DGENRE=Blues
TTITLE0=Perpetual Motion Love Machine
TTITLE1=Walkin'
TTITLE2=Gasoline
TTITLE3=Hogtown Rag
TTITLE4=All On Board
TTITLE5=The Last Goodbye
TTITLE6=C'mon Along
TTITLE7=Crazy Woman
TTITLE8=Head Case
TTITLE9=Too Little, Too Late
TTITLE10=Come Clean
TTITLE11=Navajo Sunrise
TTITLE12=Tase Of Steel
TTITLE13=Way Cool
EXTD=YEAR: 1999 ID3G: 0
EXTT0=
EXTT1=
EXTT2=
EXTT3=
EXTT4=
EXTT5=
EXTT6=
EXTT7=
EXTT8=
EXTT9=
EXTT10=
EXTT11=
EXTT12=
EXTT13=
PLAYORDER=
